<svg xmlns="http://www.w3.org/2000/svg" viewBox="0 0 913.23 220.55"><defs><style>.cls-1{fill:#b92229;}</style></defs><title>shifter</title><g id="Layer_2" data-name="Layer 2"><g id="Layer_1-2" data-name="Layer 1"><path class="cls-1" d="M60.75,47.61a22.51,22.51,0,0,1,14.34-5A33.86,33.86,0,0,1,89.88,46a37.7,37.7,0,0,1,12.42,9.61l24.54-34.73A64.6,64.6,0,0,0,104.07,5.58Q90.46,0,73.32,0A71.28,71.28,0,0,0,50.41,3.84a62.07,62.07,0,0,0-20.7,11.83A59,59,0,0,0,14.63,36.22q-5.77,12.57-5.77,30,0,13,3.25,22.47a53.56,53.56,0,0,0,9,16.56,59.75,59.75,0,0,0,13.3,12.12,133.24,133.24,0,0,0,16.11,9.16q13.6,6.8,20.7,12.86t7.1,16.41q0,10.05-5.91,15.67a20.24,20.24,0,0,1-14.49,5.62,41,41,0,0,1-18-4.29,54.12,54.12,0,0,1-15.67-11.38L0,196.9q9.46,9.47,25,16.56a81.87,81.87,0,0,0,34.44,7.1A71.91,71.91,0,0,0,84,216.26a60.81,60.81,0,0,0,21-12.74A60.12,60.12,0,0,0,119.4,182.2q5.36-12.88,5.36-29.76,0-13.62-4.31-23.55a60.47,60.47,0,0,0-10.86-17,69,69,0,0,0-14.44-12q-7.89-4.89-15-8.44-12.71-6.51-19.22-12T54.4,64.19Q54.4,52.65,60.75,47.61Z"/><polygon class="cls-1" points="240.65 84.85 191.87 84.85 191.87 5.62 144.87 5.62 144.87 214.93 191.87 214.93 191.87 127.42 240.65 127.42 240.65 214.93 287.66 214.93 287.66 5.62 240.65 5.62 240.65 84.85"/><rect class="cls-1" x="316.63" y="5.62" width="47.6" height="209.32"/><polygon class="cls-1" points="388.47 48.19 442.87 48.19 442.87 91.06 392.9 91.06 392.9 131.56 442.57 131.56 442.57 214.93 490.47 214.93 490.47 5.62 388.47 5.62 388.47 48.19"/><polygon class="cls-1" points="510.27 45.83 548.71 45.83 548.71 214.93 595.12 214.93 595.12 45.83 633.56 45.83 633.56 5.62 510.27 5.62 510.27 45.83"/><polygon class="cls-1" points="697.12 127.42 748.56 127.42 748.56 88.4 697.12 88.4 697.12 47.3 752.99 47.3 752.99 5.62 651.88 5.62 651.88 214.93 756.54 214.93 756.54 172.36 697.12 172.36 697.12 127.42"/><path class="cls-1" d="M877.56,121.51a37.2,37.2,0,0,0,10.31-5.91A43.9,43.9,0,0,0,897.45,105a57.59,57.59,0,0,0,6.92-15.67A74.57,74.57,0,0,0,907,68.59q0-31.33-16.81-47.16T843,5.62h-67V214.93h45.53V131.56h13.85l28,83.37h49.81ZM853.07,91.8a26.45,26.45,0,0,1-17.59,6.36h-13.9V45.23h14.78a35.93,35.93,0,0,1,8.43,1,19.22,19.22,0,0,1,7.83,4,21.44,21.44,0,0,1,5.77,8q2.22,5,2.22,13Q860.61,85.44,853.07,91.8Z"/></g></g></svg>